<?xml version="1.0" encoding="utf-8"?>
<!-- Generated by IcoMoon.io -->
<!DOCTYPE svg PUBLIC "-//W3C//DTD SVG 1.1//EN" "http://www.w3.org/Graphics/SVG/1.1/DTD/svg11.dtd">
<svg version="1.1" xmlns="http://www.w3.org/2000/svg" xmlns:xlink="http://www.w3.org/1999/xlink" width="300" height="300" viewBox="0 0 300 300">
	

	<!-- 微信图标  41 -->
	<svg x="0" y="0" viewBox="0 0 28.9 24" width="28.9" height="24" >
		<g>
			<path fill="#2FC3D0" d="M19.6,7.3c0.3,0,0.7,0,1,0.1C19.7,3.1,15.3,0,10.2,0C4.6,0,0,3.9,0,8.9c0,2.9,1.5,5.2,4.1,7l-1,3.1l3.6-1.8c1.3,0.3,2.3,0.5,3.6,0.5c0.3,0,0.6,0,1,0c-0.2-0.7-0.3-1.4-0.3-2.2C10.9,11,14.7,7.3,19.6,7.3 M14.1,4.4c0.8,0,1.3,0.5,1.3,1.3c0,0.8-0.5,1.3-1.3,1.3c-0.8,0-1.5-0.5-1.5-1.3C12.5,4.9,13.3,4.4,14.1,4.4 M6.9,7C6.1,7,5.4,6.5,5.4,5.7c0-0.8,0.8-1.3,1.5-1.3c0.8,0,1.3,0.5,1.3,1.3C8.2,6.5,7.7,7,6.9,7" class="color-2"/>
			<path fill="#2FC3D0" d="M28.9,15.4c0-4.2-4.1-7.6-8.7-7.6c-4.9,0-8.7,3.4-8.7,7.6c0,4.2,3.8,7.6,8.7,7.6c1,0,2-0.3,3.1-0.5l2.8,1.6l-0.8-2.6C27.4,19.8,28.9,17.7,28.9,15.4 M17.4,14.1c-0.5,0-1-0.5-1-1c0-0.5,0.5-1,1-1c0.8,0,1.3,0.5,1.3,1C18.7,13.6,18.2,14.1,17.4,14.1 M23,14.1c-0.5,0-1-0.5-1-1c0-0.5,0.5-1,1-1c0.8,0,1.3,0.5,1.3,1C24.3,13.6,23.8,14.1,23,14.1" class="color-2"/>
		</g>
	</svg>
	<!-- 微信图标 42 -->
	<svg x="0" y="24" viewBox="0 0 28.9 24" width="28.9" height="24" >
		<g>
			<path fill="#97E1E7" d="M19.6,7.3c0.3,0,0.7,0,1,0.1C19.7,3.1,15.3,0,10.2,0C4.6,0,0,3.9,0,8.9c0,2.9,1.5,5.2,4.1,7l-1,3.1l3.6-1.8c1.3,0.3,2.3,0.5,3.6,0.5c0.3,0,0.6,0,1,0c-0.2-0.7-0.3-1.4-0.3-2.2C10.9,11,14.7,7.3,19.6,7.3 M14.1,4.4c0.8,0,1.3,0.5,1.3,1.3c0,0.8-0.5,1.3-1.3,1.3c-0.8,0-1.5-0.5-1.5-1.3C12.5,4.9,13.3,4.4,14.1,4.4 M6.9,7C6.1,7,5.4,6.5,5.4,5.7c0-0.8,0.8-1.3,1.5-1.3c0.8,0,1.3,0.5,1.3,1.3C8.2,6.5,7.7,7,6.9,7" class="color-2"/>
			<path fill="#97E1E7" d="M28.9,15.4c0-4.2-4.1-7.6-8.7-7.6c-4.9,0-8.7,3.4-8.7,7.6c0,4.2,3.8,7.6,8.7,7.6c1,0,2-0.3,3.1-0.5l2.8,1.6l-0.8-2.6C27.4,19.8,28.9,17.7,28.9,15.4 M17.4,14.1c-0.5,0-1-0.5-1-1c0-0.5,0.5-1,1-1c0.8,0,1.3,0.5,1.3,1C18.7,13.6,18.2,14.1,17.4,14.1 M23,14.1c-0.5,0-1-0.5-1-1c0-0.5,0.5-1,1-1c0.8,0,1.3,0.5,1.3,1C24.3,13.6,23.8,14.1,23,14.1" class="color-2"/>
		</g>
	</svg>
	<!-- 微博图标 43 -->
	<svg x="33" y="0" viewBox="0 0 27.1 22.1" width="27.1" height="22.1" >
		<g>
			<path fill="#2FC3D0" d="M20.1,10.8C19,10.6,19.5,10,19.5,10s1-1.7-0.2-3c-1.5-1.6-5.2,0.2-5.2,0.2c-1.4,0.5-1-0.2-0.8-1.3c0-1.3-0.4-3.5-4.2-2.2c-3.8,1.3-7,6-7,6C-0.3,12.7,0,15,0,15c0.6,5.2,6,6.7,10.3,7c4.5,0.4,10.5-1.6,12.3-5.5C24.4,12.5,21.1,11,20.1,10.8 M10.6,20.6c-4.4,0.2-8-2.1-8-5.1c0-3,3.6-5.5,8-5.7c4.4-0.2,8,1.7,8,4.7C18.6,17.5,15.1,20.4,10.6,20.6" class="color-2"/>
			<path fill="#2FC3D0" d="M9.7,11.8c-4.5,0.5-3.9,4.8-3.9,4.8s0,1.4,1.2,2c2.6,1.4,5.3,0.6,6.7-1.2C15,15.7,14.2,11.3,9.7,11.8 M8.6,17.8c-0.8,0.1-1.5-0.4-1.5-1.1c0-0.7,0.6-1.5,1.4-1.5c1-0.1,1.6,0.5,1.6,1.2C10.1,17.1,9.4,17.7,8.6,17.8 M11.2,15.5c-0.3,0.2-0.6,0.2-0.8-0.1c-0.2-0.3-0.1-0.7,0.2-0.9c0.3-0.3,0.7-0.2,0.8,0.1C11.6,14.9,11.5,15.3,11.2,15.5" class="color-2"/>
			<path fill="#2FC3D0" d="M22.2,8.9c0.4,0,0.7-0.3,0.7-0.6c0,0,0,0,0-0.1c0.5-5-4-4.1-4-4.1c-0.4,0-0.7,0.3-0.7,0.8c0,0.4,0.3,0.7,0.7,0.7c3.3-0.7,2.6,2.6,2.6,2.6C21.5,8.6,21.8,8.9,22.2,8.9" class="color-2"/>
			<path fill="#2FC3D0" d="M21.7,0.2c-1.6-0.4-3.2-0.1-3.7,0c0,0-0.1,0-0.1,0c0,0,0,0,0,0c-0.4,0.1-0.8,0.6-0.8,1.1c0,0.6,0.5,1.1,1.1,1.1c0,0,0.6-0.1,1-0.2c0.4-0.2,3.6-0.1,5.3,2.7c0.9,2,0.4,3.4,0.3,3.6c0,0-0.2,0.5-0.2,1c0,0.6,0.5,1,1.1,1c0.5,0,0.9-0.1,1-0.9h0C28.4,3.6,24.5,0.8,21.7,0.2" class="color-2"/>
		</g>
	</svg>
	<!-- 微博图标 44 -->
	<svg x="33" y="24" viewBox="0 0 27.1 22.1" width="27.1" height="22.1" >
		<g>
			<path fill="#97E1E7" d="M20.1,10.8C19,10.6,19.5,10,19.5,10s1-1.7-0.2-3c-1.5-1.6-5.2,0.2-5.2,0.2c-1.4,0.5-1-0.2-0.8-1.3c0-1.3-0.4-3.5-4.2-2.2c-3.8,1.3-7,6-7,6C-0.3,12.7,0,15,0,15c0.6,5.2,6,6.7,10.3,7c4.5,0.4,10.5-1.6,12.3-5.5C24.4,12.5,21.1,11,20.1,10.8 M10.6,20.6c-4.4,0.2-8-2.1-8-5.1c0-3,3.6-5.5,8-5.7c4.4-0.2,8,1.7,8,4.7C18.6,17.5,15.1,20.4,10.6,20.6" class="color-2"/>
			<path fill="#97E1E7" d="M9.7,11.8c-4.5,0.5-3.9,4.8-3.9,4.8s0,1.4,1.2,2c2.6,1.4,5.3,0.6,6.7-1.2C15,15.7,14.2,11.3,9.7,11.8 M8.6,17.8c-0.8,0.1-1.5-0.4-1.5-1.1c0-0.7,0.6-1.5,1.4-1.5c1-0.1,1.6,0.5,1.6,1.2C10.1,17.1,9.4,17.7,8.6,17.8 M11.2,15.5c-0.3,0.2-0.6,0.2-0.8-0.1c-0.2-0.3-0.1-0.7,0.2-0.9c0.3-0.3,0.7-0.2,0.8,0.1C11.6,14.9,11.5,15.3,11.2,15.5" class="color-2"/>
			<path fill="#97E1E7" d="M22.2,8.9c0.4,0,0.7-0.3,0.7-0.6c0,0,0,0,0-0.1c0.5-5-4-4.1-4-4.1c-0.4,0-0.7,0.3-0.7,0.8c0,0.4,0.3,0.7,0.7,0.7c3.3-0.7,2.6,2.6,2.6,2.6C21.5,8.6,21.8,8.9,22.2,8.9" class="color-2"/>
			<path fill="#97E1E7" d="M21.7,0.2c-1.6-0.4-3.2-0.1-3.7,0c0,0-0.1,0-0.1,0c0,0,0,0,0,0c-0.4,0.1-0.8,0.6-0.8,1.1c0,0.6,0.5,1.1,1.1,1.1c0,0,0.6-0.1,1-0.2c0.4-0.2,3.6-0.1,5.3,2.7c0.9,2,0.4,3.4,0.3,3.6c0,0-0.2,0.5-0.2,1c0,0.6,0.5,1,1.1,1c0.5,0,0.9-0.1,1-0.9h0C28.4,3.6,24.5,0.8,21.7,0.2" class="color-2"/>
		</g>
	</svg>
	<!-- QQ图标 45 -->
	<svg x="66" y="0" viewBox="0 0 19 21.8" width="19" height="21.8" >
		<g>
			<path fill="#2FC3D0" d="M19,14.8c-0.2-2.1-1.5-3.9-2.3-4.8c0.1-0.3,0.4-1.8-0.7-2.8c0,0,0,0,0-0.1C16,3,13.1,0,9.5,0C5.9,0,3,3,3,7.1c0,0,0,0.1,0,0.1c-1,1-0.8,2.6-0.7,2.8C1.5,11,0.2,12.7,0,14.8c0,0.6,0.1,1.4,0.3,1.7c0.3,0.4,1.2-0.1,1.8-1.5c0.2,0.6,0.6,1.6,1.5,2.9c-1.5,0.4-2,1.9-1.5,2.8c0.4,0.6,1.2,1.1,2.6,1.1c2.6,0,3.7-0.7,4.2-1.2c0.1-0.1,0.3-0.2,0.4-0.2c0.2,0,0.3,0.1,0.4,0.2c0.5,0.5,1.6,1.2,4.2,1.2c1.4,0,2.3-0.5,2.6-1.1c0.5-0.8,0.1-2.4-1.5-2.8c0.9-1.3,1.3-2.2,1.5-2.9c0.6,1.4,1.5,1.9,1.8,1.5C19,16.2,19,15.4,19,14.8" class="color-2"/>
		</g>
	</svg>
	<!-- QQ图标 46 -->
	<svg x="66" y="24" viewBox="0 0 19 21.8" width="19" height="21.8" >
		<g>
			<path fill="#97E1E7" d="M19,14.8c-0.2-2.1-1.5-3.9-2.3-4.8c0.1-0.3,0.4-1.8-0.7-2.8c0,0,0-0.1,0-0.1C16,3,13.1,0,9.5,0C5.9,0,3,3,3,7.1c0,0,0,0,0,0.1c-1,1-0.8,2.6-0.7,2.8C1.5,11,0.2,12.7,0,14.8c0,0.6,0.1,1.4,0.3,1.7c0.3,0.4,1.2-0.1,1.8-1.5c0.2,0.6,0.6,1.6,1.5,2.9c-1.5,0.4-2,1.9-1.5,2.8c0.4,0.6,1.2,1.1,2.6,1.1c2.6,0,3.7-0.7,4.2-1.2c0.1-0.1,0.3-0.2,0.4-0.2c0.2,0,0.3,0.1,0.4,0.2c0.5,0.5,1.6,1.2,4.2,1.2c1.4,0,2.3-0.5,2.6-1.1c0.5-0.8,0.1-2.4-1.5-2.8c0.9-1.3,1.3-2.2,1.5-2.9c0.6,1.4,1.5,1.9,1.8,1.5C19,16.2,19,15.4,19,14.8" class="color-2"/>
		</g>
	</svg>

	<!-- 密码查看 蓝色眼睛 39 -->
	<svg x="0" y="60" viewBox="0 0 30 18" width="30" height="18" >
		<g>
			<path fill="#2FC3D0" d="M11.2,9c0,2,1.7,3.6,3.8,3.6c2.1,0,3.8-1.6,3.8-3.6c0-2-1.7-3.6-3.8-3.6C12.9,5.4,11.2,7,11.2,9 M15,0C6.7,0,0,7.2,0,9c0,1.8,6.7,9,15,9s15-7.2,15-9C30,7.2,23.3,0,15,0 M15,14.4c-3.1,0-5.6-2.4-5.6-5.4c0-3,2.5-5.4,5.6-5.4S20.6,6,20.6,9C20.6,12,18.1,14.4,15,14.4" class="color-2"/>
		</g>
	</svg>

	<!-- 密码查看 灰色眼睛 38 -->
	<svg x="0" y="79" viewBox="0 0 30 18" width="30" height="18">
		<g>
			<path fill="#E6E6E5" d="M11.2,9c0,2,1.7,3.6,3.8,3.6c2.1,0,3.8-1.6,3.8-3.6c0-2-1.7-3.6-3.8-3.6C12.9,5.4,11.2,7,11.2,9 M15,0C6.7,0,0,7.2,0,9c0,1.8,6.7,9,15,9c8.3,0,15-7.2,15-9C30,7.2,23.3,0,15,0 M15,14.4c-3.1,0-5.6-2.4-5.6-5.4c0-3,2.5-5.4,5.6-5.4c3.1,0,5.6,2.4,5.6,5.4C20.6,12,18.1,14.4,15,14.4" class="color-2"/>
		</g>
	</svg>
	

	<!-- 登陆框关闭图标 X 蓝色 47 -->
	<svg x="40" y="60" viewBox="0 0 23 23" width="23" height="23" >
		<g>
			<polygon fill-rule="evenodd" clip-rule="evenodd" fill="#2FC3D0" points="23,21.6 12.7,11.3 22.6,1.4 21.6,0.4 11.7,10.3 1.3,0 0.3,1 10.6,11.3 0,22 1,23 11.7,12.4 22,22.7 " class="color-2"/>
		</g>
	</svg>
	<!-- 登陆框关闭图标 X 灰色 48 -->
	<svg x="40" y="84" viewBox="0 0 23 23" width="23" height="23">
		<g>
			<polygon fill-rule="evenodd" clip-rule="evenodd" fill="#B3B3B3" points="23,21.6 12.7,11.3 22.6,1.4 21.6,0.4 11.7,10.3 1.3,0 0.3,1 10.6,11.3 0,22 1,23 11.7,12.4 22,22.7 " class="color-2"/>
		</g>
	</svg>
	
	<!-- 登陆状态 未选中-->
	<svg x="80" y="60" width="21" height="21" viewBox="0 0 21 21" >
		<g>
			<path id="XMLID_1108_" fill-rule="evenodd" clip-rule="evenodd" fill="#2FC3D0" d="M3,0h15c1.657,0,3,1.343,3,3v15 c0,1.657-1.343,3-3,3H3c-1.657,0-3-1.343-3-3V3C0,1.343,1.343,0,3,0z"/>
			<g id="XMLID_324_">
				<g>
					<path fill-rule="evenodd" clip-rule="evenodd" fill="#FFFFFF" d="M17.011,5.425c-0.344-0.281-0.844-0.216-1.116,0.145 l-6.805,9.013l-4.114-3.353c-0.344-0.281-0.844-0.216-1.117,0.145c-0.272,0.361-0.214,0.881,0.13,1.161l4.738,3.862 c0.344,0.281,0.844,0.216,1.117-0.145l7.298-9.667C17.414,6.225,17.356,5.705,17.011,5.425z"/>
				</g>
			</g>
		</g>
	</svg>

	<!-- 登陆状态 选中-->
	<svg x="80" y="82" width="21" height="21" viewBox="0 0 21 21">
		<g>
			<path id="XMLID_1110_" fill="#B3B3B3" d="M18,1c1.103,0,2,0.897,2,2v15c0,1.103-0.897,2-2,2H3c-1.103,0-2-0.897-2-2V3 c0-1.103,0.897-2,2-2H18 M18,0H3C1.343,0,0,1.343,0,3v15c0,1.657,1.343,3,3,3h15c1.657,0,3-1.343,3-3V3C21,1.343,19.657,0,18,0 L18,0z"/>
		</g>
	</svg>
	

</svg>